<?xml version="1.0" encoding="utf-8"?>
<!-- Generator: Adobe Illustrator 15.1.0, SVG Export Plug-In . SVG Version: 6.00 Build 0)  -->
<!DOCTYPE svg PUBLIC "-//W3C//DTD SVG 1.1//EN" "http://www.w3.org/Graphics/SVG/1.1/DTD/svg11.dtd">
<svg version="1.1" id="Layer_1" xmlns="http://www.w3.org/2000/svg" xmlns:xlink="http://www.w3.org/1999/xlink" x="0px" y="0px"
	 width="550px" height="85px" viewBox="0 0 550 85" enable-background="new 0 0 550 85" xml:space="preserve">
<g>
	<polygon fill="#848484" stroke="#4F4F4F" stroke-width="0.5" stroke-miterlimit="10" points="58.163,3.824 58.163,23.638 
		41.351,23.638 63.522,43.826 48.684,79.412 8.481,79.412 8.481,50.211 35.657,50.211 7.188,23.552 23.406,3.883 	"/>
	<polygon fill="#848484" stroke="#4F4F4F" stroke-width="0.5" stroke-miterlimit="10" points="62.674,3.883 62.674,23.639 
		81.136,23.639 81.136,79.456 107.017,79.456 107.017,23.596 125.307,23.596 125.307,3.926 	"/>
	<path fill="#848484" stroke="#4F4F4F" stroke-width="0.5" stroke-miterlimit="10" d="M177.251,3.955h-34.421l-14.396,19.502v19.108
		l14.134,36.513h34.552l14.135-36.121V23.195L177.251,3.955z M163.64,50.547h-7.33V23.456h7.33V50.547z"/>
	<polygon fill="#848484" stroke="#4F4F4F" stroke-width="0.5" stroke-miterlimit="10" points="194.892,3.864 194.892,23.495 
		199.821,23.495 199.821,79.275 250.672,79.275 250.672,50.391 225.679,50.391 225.679,43.904 250.672,43.904 250.672,30.241 
		225.679,30.241 225.679,23.582 250.672,23.582 250.672,3.864 	"/>
	<polygon fill="#848484" stroke="#4F4F4F" stroke-width="0.5" stroke-miterlimit="10" points="420.652,3.864 420.652,23.495 
		425.583,23.495 425.583,79.275 476.433,79.275 476.433,50.391 451.44,50.391 451.44,43.904 476.433,43.904 476.433,30.241 
		451.44,30.241 451.44,23.582 476.433,23.582 476.433,3.864 	"/>
	<polygon fill="#848484" stroke="#4F4F4F" stroke-width="0.5" stroke-miterlimit="10" points="256.121,23.616 267.982,3.885 
		297.342,3.885 301.571,10.815 306.504,3.885 334.454,3.885 346.316,23.499 346.316,79.401 320.597,79.401 320.597,23.499 
		313.197,23.499 313.197,79.401 289.474,79.401 289.474,23.499 281.957,23.499 281.957,79.283 256.121,79.283 	"/>
	<path fill="#848484" stroke="#4F4F4F" stroke-width="0.5" stroke-miterlimit="10" d="M403.162,3.965l-52.943,0.038v19.496h4.933
		v55.903h25.955V43.698h18.556l18.321-20.2L403.162,3.965z M381.482,35.496l-0.197-11.975h12.368L381.482,35.496z"/>
	<path fill="#848484" stroke="#4F4F4F" stroke-width="0.5" stroke-miterlimit="10" d="M532.539,33.532l10.717-10.122L528.75,3.934
		l-47.916-0.075v19.65h4.764v55.772h25.901V44.15h6.153v35.131h25.901v-45.75H532.539z M511.697,33.036l-0.099-9.527h7.146
		L511.697,33.036z"/>
</g>
</svg>
